<?xml version="1.0" standalone="no"?>
<!DOCTYPE svg PUBLIC "-//W3C//DTD SVG 20010904//EN"
 "http://www.w3.org/TR/2001/REC-SVG-20010904/DTD/svg10.dtd">
<svg version="1.0" xmlns="http://www.w3.org/2000/svg"
 width="640.000000pt" height="640.000000pt" viewBox="0 0 640.000000 640.000000"
 preserveAspectRatio="xMidYMid meet">
<metadata>
Created by potrace 1.14, written by Peter Selinger 2001-2017
</metadata>
<g transform="translate(0.000000,640.000000) scale(0.100000,-0.100000)"
fill="#000000" stroke="none">
<path d="M2107 5914 c-1 -1 -36 -4 -77 -7 -41 -3 -96 -13 -122 -21 -27 -8 -48
-13 -48 -11 0 10 -180 -69 -238 -103 -207 -124 -379 -342 -450 -572 -20 -63
-25 -88 -38 -180 -8 -48 -8 -4305 -1 -4330 17 -60 61 -123 106 -153 76 -50
104 -53 551 -52 426 2 482 5 585 30 88 22 87 22 120 36 17 7 32 13 35 13 3 1
34 16 70 35 138 71 261 177 358 307 28 40 52 74 52 78 0 3 11 24 25 46 14 22
22 40 19 40 -4 0 -2 6 4 13 13 16 57 142 67 192 5 22 9 43 10 48 2 4 3 21 4
39 1 28 3 30 15 18 19 -21 136 -210 136 -221 0 -5 5 -9 10 -9 6 0 10 -7 10
-15 0 -8 5 -15 10 -15 6 0 10 -5 10 -11 0 -7 16 -37 37 -68 20 -31 56 -86 80
-123 79 -120 218 -244 358 -319 52 -27 225 -92 225 -84 0 2 11 0 25 -5 54 -20
226 -28 347 -15 137 14 332 91 461 182 65 45 200 183 244 248 71 106 144 274
158 364 18 113 21 150 19 228 -3 130 -10 171 -48 288 -34 103 -65 162 -187
357 -54 88 -99 163 -99 168 0 5 -4 10 -8 12 -4 2 -59 86 -121 186 l-112 184
55 56 c169 173 315 410 402 648 32 88 72 234 79 289 2 11 6 33 9 50 33 175 26
487 -15 680 -102 473 -379 885 -779 1157 -55 37 -102 68 -105 68 -3 0 -22 10
-43 23 -39 24 -218 108 -236 111 -6 1 -15 4 -21 8 -14 8 -210 64 -260 74 -22
4 -44 8 -50 9 -104 24 -234 28 -928 29 -390 1 -709 0 -710 0z m127 -329 c93
-11 187 -46 275 -102 63 -39 188 -163 211 -208 8 -17 18 -32 21 -35 7 -6 60
-137 64 -160 2 -8 4 -15 5 -15 16 0 24 -3617 8 -3695 -12 -59 -38 -133 -63
-180 -14 -25 -27 -53 -31 -62 -3 -10 -10 -18 -15 -18 -5 0 -9 -5 -9 -11 0 -6
-6 -16 -12 -23 -7 -7 -27 -29 -45 -49 -41 -47 -135 -118 -200 -150 -28 -15
-89 -36 -135 -48 -78 -21 -106 -22 -470 -23 -336 -1 -387 1 -390 14 -6 29 -1
4135 5 4183 12 92 52 193 111 282 147 221 401 335 670 300z m1331 1 c91 -9
162 -23 245 -46 141 -38 162 -46 280 -103 202 -96 392 -250 541 -437 115 -144
243 -401 273 -546 3 -10 11 -48 20 -84 22 -98 28 -152 29 -305 1 -148 -5 -213
-30 -335 -14 -69 -51 -198 -72 -245 -36 -85 -108 -222 -148 -282 -56 -83 -153
-203 -165 -203 -7 0 -54 66 -68 95 -5 11 -155 252 -195 315 -13 19 -55 87 -94
150 -38 63 -74 120 -78 125 -4 6 -15 22 -23 37 -8 14 -86 139 -173 279 -87
140 -164 263 -170 274 -7 11 -21 34 -33 50 -12 17 -29 45 -39 64 -9 19 -21 39
-27 45 -17 20 -148 238 -148 246 0 5 -3 10 -8 12 -10 4 -242 377 -242 389 0 5
-3 9 -8 9 -4 0 -12 9 -17 20 -36 74 -267 429 -296 456 -11 9 -15 20 -10 23 12
8 580 6 656 -3z m-221 -1289 c102 -164 186 -302 186 -307 0 -5 3 -10 8 -12 13
-6 52 -67 52 -83 0 -8 4 -15 9 -15 5 0 16 -12 24 -27 23 -47 218 -357 234
-375 9 -10 13 -18 10 -18 -6 0 52 -93 73 -117 5 -7 10 -14 10 -17 0 -4 477
-773 536 -863 19 -29 34 -57 34 -62 0 -5 3 -11 8 -13 6 -2 161 -248 213 -337
8 -14 17 -30 22 -35 26 -36 87 -138 87 -146 0 -6 5 -10 10 -10 6 0 10 -6 10
-13 0 -7 6 -19 13 -26 6 -6 12 -15 13 -19 0 -4 8 -25 18 -47 42 -95 66 -268
45 -322 -5 -13 -4 -25 1 -28 5 -3 6 -15 1 -28 -5 -12 -19 -53 -31 -91 -59
-185 -193 -334 -373 -416 -106 -48 -178 -63 -300 -62 -183 2 -366 83 -488 216
-33 35 -199 290 -199 305 0 5 -4 11 -8 13 -4 2 -17 19 -28 38 -57 96 -138 226
-144 230 -4 3 -9 10 -11 15 -4 10 -74 124 -119 195 -14 21 -44 70 -67 109
l-43 69 0 1303 c0 716 2 1300 4 1298 2 -2 88 -138 190 -302z"/>
</g>
</svg>
